<?xml version="1.0" encoding="utf-8"?>
<svg width="941.906" height="184.078" viewBox="0 0 941.906 184.078" fill="none" xmlns="http://www.w3.org/2000/svg">
  <g transform="translate(-0 0)">
    <path d="M59.7657 0L102.797 0L45.4219 93.2345L83.6719 148.219L59.7657 184.078L0 93.2345L59.7657 0Z" fill="#7D0000" fill-rule="evenodd" transform="translate(294.047 0)" />
    <path d="M119.531 0L162.563 0L43.0313 184.078L0 184.078L119.531 0Z" fill="#FF4141" fill-rule="evenodd" transform="translate(370.547 0)" />
    <path d="M45.4221 0L105.188 93.2345L45.4221 184.078L0 184.078L59.7659 93.2345L21.5157 33.4688L45.4221 0Z" fill="#7D0000" fill-rule="evenodd" transform="translate(506.812 0)" />
    <path d="M0 0L35.8594 0L35.8594 150.609L112.359 150.609L112.359 181.687L0 181.687L0 0Z" fill="#FF4141" fill-rule="evenodd" transform="translate(0 0)" />
    <path d="M0 112.359L0 0L35.8596 0L35.8596 112.36C35.8595 167.344 109.969 167.344 109.969 112.36L109.969 0L145.829 0L145.829 112.36C146.726 203.203 0 203.203 0 112.359Z" fill="#FF4141" fill-rule="evenodd" transform="translate(129.094 0)" />
    <path d="M0 1.19531L121.922 0L121.922 31.0781L38.25 31.0781L38.25 76.5L114.75 76.5L114.75 107.578L38.25 107.578L38.25 150.609L121.922 150.609L121.922 181.687L0 181.687L0 1.19531Z" fill="#FF4141" fill-rule="evenodd" transform="translate(628.734 0)" />
    <path d="M0 0L43.0312 0L86.0625 138.656L88.4531 138.656L131.484 0L174.516 0L112.359 181.687L62.1562 181.687L0 0Z" fill="#FF4141" fill-rule="evenodd" transform="translate(767.391 0)" />
  </g>
</svg>